<?xml version="1.0" encoding="UTF-8" standalone="no"?>
<!-- Created with Inkscape (http://www.inkscape.org/) -->

<svg
   width="256"
   height="256"
   viewBox="0 0 67.733332 67.733334"
   version="1.1"
   id="svg5"
   xml:space="preserve"
   sodipodi:docname="navmesh_splitter.svg"
   inkscape:version="1.2.1 (9c6d41e410, 2022-07-14, custom)"
   inkscape:export-filename="../GameDev/tefaora/addons/navmesh_splitter/icon.png"
   inkscape:export-xdpi="96"
   inkscape:export-ydpi="96"
   xmlns:inkscape="http://www.inkscape.org/namespaces/inkscape"
   xmlns:sodipodi="http://sodipodi.sourceforge.net/DTD/sodipodi-0.dtd"
   xmlns="http://www.w3.org/2000/svg"
   xmlns:svg="http://www.w3.org/2000/svg"><sodipodi:namedview
     id="namedview7"
     pagecolor="#ffffff"
     bordercolor="#666666"
     borderopacity="1.0"
     inkscape:showpageshadow="2"
     inkscape:pageopacity="0.0"
     inkscape:pagecheckerboard="0"
     inkscape:deskcolor="#d1d1d1"
     inkscape:document-units="mm"
     showgrid="false"
     inkscape:zoom="2.6532575"
     inkscape:cx="297.37031"
     inkscape:cy="183.17107"
     inkscape:window-width="2560"
     inkscape:window-height="1411"
     inkscape:window-x="2560"
     inkscape:window-y="0"
     inkscape:window-maximized="1"
     inkscape:current-layer="layer1" /><defs
     id="defs2" /><g
     inkscape:label="Layer 1"
     inkscape:groupmode="layer"
     id="layer1"><path
       style="fill:#000000;stroke-width:0.201899"
       d="M 17.497833,29.073219 C 14.848795,27.418427 13.050208,26.605367 10.506536,25.912714 5.3836169,24.517741 2.0570098,21.84644 0.79281337,18.112496 0.22822285,16.444959 0.40925159,13.923011 1.1912978,12.560031 2.1213848,10.939089 3.3321562,9.9008125 5.2201001,9.1052185 c 1.5789361,-0.490398 2.4110474,-0.723368 3.8799118,-0.76972 3.3885501,-0.106952 5.8927121,0.566723 8.6312271,2.3219955 3.351729,2.148329 5.453196,6.112615 4.85957,9.167269 -0.129462,0.666321 -0.486044,1.648216 -0.792324,2.18199 -0.306241,0.533773 -0.556843,1.017627 -0.556843,1.075229 0,0.05761 0.885497,0.706853 1.967815,1.442784 1.082299,0.735928 1.967835,1.392284 1.967835,1.458565 0,0.156678 -5.087719,4.507284 -5.270921,4.507284 -0.07669,0 -1.160568,-0.637825 -2.408538,-1.417387 z M 15.272578,21.51712 c 0.803926,-0.211981 1.962003,-1.252505 2.166236,-1.946364 0.210737,-0.715742 -0.0099,-2.137141 -0.458412,-2.939881 -0.6849,-1.228733 -2.423124,-2.675611 -3.971226,-3.305592 -2.641074,-1.074754 -5.1127209,-0.923156 -6.5141667,0.399548 -1.6964398,1.601084 -1.1078742,4.004702 1.4945198,6.103297 2.2263029,1.79534 4.7021599,2.369513 7.2830489,1.688992 z"
       id="path5675" /><path
       style="fill:#000000;stroke-width:0.201899"
       d="M 58.083696,50.425325 C 57.482422,50.339228 56.54769,50.1357 56.006542,49.97291 55.313477,49.764384 30.069671,37.649112 29.136007,37.076864 c 1.830606,-1.854377 3.360227,-3.169549 5.462781,-5.070926 17.176931,10.607617 17.180015,10.631478 29.226971,18.080482 -0.456753,0.216893 -2.809552,0.540363 -3.75982,0.517085 -0.489007,-0.01084 -1.381047,-0.09227 -1.982321,-0.178143 z"
       id="path5673" /><path
       d="m 31.154913,12.849975 a 4.8508851,4.8508851 0 0 0 -4.850907,4.850889 4.8508851,4.8508851 0 0 0 2.425415,4.197186 v 15.864823 a 4.8508851,4.8508851 0 0 0 -2.425415,4.192449 4.8508851,4.8508851 0 0 0 4.850907,4.850824 4.8508851,4.8508851 0 0 0 4.197218,-2.425415 h 6.082511 l 1.819103,-4.850913 H 35.347271 A 4.8508851,4.8508851 0 0 0 33.580236,37.758105 V 23.555907 l 11.393061,11.393056 1.871172,-4.988147 -9.834391,-9.834441 h 14.206796 a 4.8508851,4.8508851 0 0 0 1.766943,1.771673 v 0.658194 a 4.8513701,4.8513701 0 0 1 0.05504,0 4.8513701,4.8513701 0 0 1 4.486063,3.145573 l 0.308023,0.819532 v -4.628248 a 4.8508851,4.8508851 0 0 0 2.425488,-4.192348 4.8508851,4.8508851 0 0 0 -4.850908,-4.850879 4.8508851,4.8508851 0 0 0 -4.197218,2.42544 H 35.345492 a 4.8508851,4.8508851 0 0 0 -4.192359,-2.42544 z m 21.828996,14.552691 -7.276337,19.40348 7.276337,-4.850824 7.276321,4.850824 z"
       fill="#fc9c9c"
       fill-opacity="0.99608"
       id="path7498"
       style="stroke-width:2.42544" /><path
       style="fill:#000000;stroke-width:0.201899"
       d="M 6.337837,57.911358 C 4.7233238,57.471098 3.7918532,56.967202 2.6641546,55.924063 1.2724929,54.636729 0.65449709,53.288865 0.5232172,51.254539 0.31688919,48.05566 1.4450423,45.655501 4.3044416,43.210706 c 0,0 1.5133753,-1.137069 2.3584526,-1.613101 0.8450771,-0.476032 2.5129764,-1.183391 2.5129764,-1.183391 l 3.0679014,-1.254487 4.116282,-3.268423 C 30.576647,24.603055 44.421931,13.790836 46.252102,12.547648 c 1.244668,-0.845464 4.091595,-2.03692 5.600129,-2.343692 0.541149,-0.110052 1.98242,-0.2581355 3.202798,-0.3290815 L 57.273901,9.7458865 38.438102,25.803294 C 21.751049,40.028896 19.633059,41.898052 19.871881,42.188117 c 1.484182,1.80266 2.020607,2.985795 2.177028,4.801798 0.230343,2.673664 -1.094928,5.513536 -3.634153,7.787633 -2.654435,2.377284 -5.487882,3.488064 -8.8707602,3.477583 C 8.263967,58.25075 7.1433643,58.130946 6.337837,57.911362 Z m 6.126375,-4.701322 c 1.188931,-0.352024 2.121568,-1.240579 2.802673,-1.974984 1.183377,-1.270995 1.675569,-2.541505 1.563875,-4.037078 -0.155353,-2.082329 -1.470879,-3.008584 -4.088828,-2.879241 -1.857882,0.09181 -3.2805943,0.67336 -4.7933765,1.959415 -1.5594478,1.325735 -2.2967853,2.841464 -2.4548074,3.962176 -0.158121,1.120711 0.4209179,2.317967 1.3076995,2.898664 1.579252,1.034159 2.599468,1.38617 5.6627644,0.07102 1.372055,-0.589058 0,2.4e-5 0,2.4e-5 z"
       id="path248"
       sodipodi:nodetypes="ssccsccsssscsssscsscccsszascc" /><path
       style="fill:none;stroke:#000000;stroke-width:1.1859;stroke-linecap:butt;stroke-linejoin:miter;stroke-dasharray:2.37182, 2.37182;stroke-dashoffset:0;stroke-opacity:1"
       d="M 35.795308,30.168876 65.824091,29.915418"
       id="path2716"
       sodipodi:nodetypes="cc" /></g></svg>
